<svg width="32" height="32" viewBox="0 0 32 32" fill="none" xmlns="http://www.w3.org/2000/svg">
<path d="M24.7736 18.9535L17.0467 11.2266C16.9749 11.1548 16.8897 11.0978 16.7959 11.0589C16.7021 11.02 16.6015 11 16.5 11C16.3985 11 16.2979 11.02 16.2041 11.0589C16.1103 11.0978 16.0251 11.1548 15.9533 11.2266L8.22644 18.9535C8.08145 19.0985 8 19.2951 8 19.5002C8 19.7052 8.08145 19.9019 8.22644 20.0469C8.37143 20.1918 8.56807 20.2733 8.77312 20.2733C8.97816 20.2733 9.17481 20.1918 9.31979 20.0469L16.5 12.8657L23.6802 20.0469C23.752 20.1186 23.8372 20.1756 23.931 20.2144C24.0248 20.2533 24.1254 20.2733 24.2269 20.2733C24.3284 20.2733 24.4289 20.2533 24.5227 20.2144C24.6165 20.1756 24.7018 20.1186 24.7736 20.0469C24.8454 19.9751 24.9023 19.8898 24.9411 19.796C24.98 19.7022 25 19.6017 25 19.5002C25 19.3986 24.98 19.2981 24.9411 19.2043C24.9023 19.1105 24.8454 19.0253 24.7736 18.9535Z" fill="#F3F3F3"/>
</svg>
