<svg width="24" height="25" viewBox="0 0 24 25" fill="none" xmlns="http://www.w3.org/2000/svg">
<path opacity="0.2" d="M12 2.95093C10.0109 2.95093 8.10322 3.7411 6.6967 5.14763C5.29018 6.55415 4.5 8.4618 4.5 10.4509C4.5 17.2009 12 22.4509 12 22.4509C12 22.4509 19.5 17.2009 19.5 10.4509C19.5 8.4618 18.7098 6.55415 17.3033 5.14763C15.8968 3.7411 13.9891 2.95093 12 2.95093ZM12 13.4509C11.4067 13.4509 10.8266 13.275 10.3333 12.9453C9.83994 12.6157 9.45542 12.1472 9.22836 11.599C9.0013 11.0508 8.94189 10.4476 9.05764 9.86566C9.1734 9.28371 9.45912 8.74916 9.87868 8.32961C10.2982 7.91005 10.8328 7.62433 11.4147 7.50857C11.9967 7.39282 12.5999 7.45223 13.1481 7.67929C13.6962 7.90635 14.1648 8.29087 14.4944 8.78422C14.8241 9.27757 15 9.85758 15 10.4509C15 11.2466 14.6839 12.0096 14.1213 12.5722C13.5587 13.1349 12.7956 13.4509 12 13.4509Z" fill="#DB509B"/>
<path d="M12 6.70093C11.2583 6.70093 10.5333 6.92086 9.91661 7.33292C9.29993 7.74497 8.81928 8.33064 8.53545 9.01587C8.25162 9.70109 8.17736 10.4551 8.32205 11.1825C8.46675 11.9099 8.8239 12.5781 9.34835 13.1026C9.8728 13.627 10.541 13.9842 11.2684 14.1289C11.9958 14.2736 12.7498 14.1993 13.4351 13.9155C14.1203 13.6316 14.706 13.151 15.118 12.5343C15.5301 11.9176 15.75 11.1926 15.75 10.4509C15.75 9.45637 15.3549 8.50254 14.6517 7.79928C13.9484 7.09602 12.9946 6.70093 12 6.70093ZM12 12.7009C11.555 12.7009 11.12 12.569 10.75 12.3217C10.38 12.0745 10.0916 11.7231 9.92127 11.312C9.75097 10.9008 9.70642 10.4484 9.79323 10.012C9.88005 9.57552 10.0943 9.17461 10.409 8.85994C10.7237 8.54527 11.1246 8.33098 11.561 8.24416C11.9975 8.15734 12.4499 8.2019 12.861 8.3722C13.2722 8.5425 13.6236 8.83088 13.8708 9.20089C14.118 9.57091 14.25 10.0059 14.25 10.4509C14.25 11.0477 14.0129 11.62 13.591 12.0419C13.169 12.4639 12.5967 12.7009 12 12.7009ZM12 2.20093C9.81273 2.20341 7.71575 3.0734 6.16911 4.62004C4.62247 6.16668 3.75248 8.26365 3.75 10.4509C3.75 13.3947 5.11031 16.5147 7.6875 19.4744C8.84552 20.8118 10.1489 22.0161 11.5734 23.065C11.6995 23.1533 11.8498 23.2007 12.0037 23.2007C12.1577 23.2007 12.308 23.1533 12.4341 23.065C13.856 22.0156 15.1568 20.8113 16.3125 19.4744C18.8859 16.5147 20.25 13.3947 20.25 10.4509C20.2475 8.26365 19.3775 6.16668 17.8309 4.62004C16.2843 3.0734 14.1873 2.20341 12 2.20093ZM12 21.5134C10.4503 20.2947 5.25 15.8181 5.25 10.4509C5.25 8.66072 5.96116 6.94383 7.22703 5.67796C8.4929 4.41209 10.2098 3.70093 12 3.70093C13.7902 3.70093 15.5071 4.41209 16.773 5.67796C18.0388 6.94383 18.75 8.66072 18.75 10.4509C18.75 15.8162 13.5497 20.2947 12 21.5134Z" fill="#DB509B"/>
</svg>
