<svg width="240" height="76" viewBox="0 0 240 76" fill="none" xmlns="http://www.w3.org/2000/svg">
<path d="M100.451 63.8962C100.451 66.8119 98.4553 70.1083 94.1844 70.1083H90.6906V72.4913C90.6906 73.9609 89.6707 75.1783 88.4126 75.1783C87.1545 75.1783 86.1361 73.9609 86.1361 72.4913V60.4996C86.1361 58.6994 87.0041 57.6794 88.5427 57.6794H94.1829C98.4523 57.6841 100.451 60.9805 100.451 63.8962ZM95.6806 63.8962C95.6806 62.3295 94.6388 61.7404 93.1003 61.7404H90.6906V66.0504H93.0971C94.6357 66.0504 95.6775 65.4676 95.6775 63.8962H95.6806Z" fill="white"/>
<path d="M110.311 69.9762H105.259C105.639 71.2296 106.706 71.7121 108.101 71.7121C108.716 71.7038 109.329 71.6256 109.927 71.4787C110.063 71.4473 110.201 71.4325 110.34 71.4348C110.767 71.4343 111.181 71.5872 111.506 71.8658C111.831 72.1443 112.045 72.5301 112.11 72.9531C112.175 73.376 112.086 73.8082 111.859 74.1713C111.633 74.5343 111.284 74.8041 110.875 74.9317C109.843 75.2474 108.768 75.4059 107.689 75.4018C103.22 75.4018 100.77 72.8198 100.77 69.3072C100.77 65.7946 103.46 63.2581 107.233 63.2581C110.637 63.2581 112.708 65.0081 112.708 68.0006C112.708 69.2931 111.867 69.9762 110.311 69.9762ZM108.533 67.8079C108.531 67.6018 108.487 67.3983 108.404 67.2095C108.322 67.0207 108.202 66.8504 108.053 66.7088C107.903 66.5671 107.726 66.4571 107.533 66.3851C107.34 66.3131 107.135 66.2807 106.929 66.2897C106.083 66.2897 105.465 66.8318 105.221 67.8079H108.533Z" fill="white"/>
<path d="M123.809 65.6722C123.809 66.957 122.919 68.085 121.082 67.9973C119.477 67.922 118.724 68.9091 118.724 71.1699V72.9685C118.708 73.5477 118.467 74.098 118.052 74.5023C117.637 74.9065 117.081 75.1327 116.501 75.1327C115.922 75.1327 115.365 74.9065 114.95 74.5023C114.535 74.098 114.294 73.5477 114.279 72.9685V65.6832C114.294 65.104 114.535 64.5537 114.95 64.1494C115.365 63.7452 115.922 63.519 116.501 63.519C117.081 63.519 117.637 63.7452 118.052 64.1494C118.467 64.5537 118.708 65.104 118.724 65.6832V66.6232C119.028 65.2038 119.852 63.4788 121.603 63.4788C122.855 63.471 123.809 64.2732 123.809 65.6722Z" fill="white"/>
<path d="M134.563 71.4933C134.563 74.1223 132.236 75.3977 129.147 75.3977C127.912 75.3869 126.686 75.1817 125.515 74.7897C124.74 74.5187 124.252 73.9766 124.252 73.2121C124.252 72.2846 124.907 71.6124 125.916 71.6124C127 71.6124 127.787 72.2532 129.224 72.2532C129.792 72.2532 130.28 72.1984 130.28 71.7706C130.28 70.6473 124.545 71.3007 124.545 67.13C124.545 64.3538 127 63.2539 129.759 63.2539C130.9 63.2615 132.032 63.4536 133.111 63.8226C133.836 64.0999 134.265 64.606 134.265 65.4222C134.265 66.2385 133.587 66.9624 132.617 66.9624C131.755 66.9624 130.92 66.2887 129.64 66.2887C128.902 66.2887 128.713 66.4453 128.713 66.7179C128.719 67.683 134.563 67.2161 134.563 71.4933Z" fill="white"/>
<path d="M135.591 69.3291C135.591 65.9466 138.303 63.2581 141.968 63.2581C145.633 63.2581 148.343 65.9466 148.343 69.3291C148.343 72.7117 145.633 75.4018 141.968 75.4018C138.303 75.4018 135.591 72.7086 135.591 69.3291ZM143.895 69.3291C143.895 68.0068 143.071 67.1608 141.966 67.1608C140.862 67.1608 140.036 68.0068 140.036 69.3291C140.036 70.6515 140.86 71.4756 141.966 71.4756C143.073 71.4756 143.897 70.628 143.897 69.3291H143.895Z" fill="white"/>
<path d="M161.893 67.3739V72.9687C161.878 73.5479 161.637 74.0982 161.222 74.5024C160.806 74.9067 160.25 75.1329 159.67 75.1329C159.091 75.1329 158.535 74.9067 158.12 74.5024C157.704 74.0982 157.463 73.5479 157.448 72.9687V69.3292C157.448 67.941 156.906 67.377 156.038 67.377C155.17 67.377 154.412 67.941 154.412 69.3292V72.9718C154.396 73.551 154.155 74.1013 153.74 74.5056C153.325 74.9098 152.769 75.136 152.189 75.136C151.61 75.136 151.053 74.9098 150.638 74.5056C150.223 74.1013 149.982 73.551 149.967 72.9718V65.6865C149.982 65.1073 150.223 64.557 150.638 64.1527C151.053 63.7485 151.61 63.5223 152.189 63.5223C152.769 63.5223 153.325 63.7485 153.74 64.1527C154.155 64.557 154.396 65.1073 154.412 65.6865V65.4703C154.846 64.2545 156.038 63.2581 157.99 63.2581C160.159 63.2549 161.893 64.4472 161.893 67.3739Z" fill="white"/>
<path d="M175.986 67.3739V72.9687C175.971 73.5479 175.73 74.0982 175.315 74.5024C174.9 74.9067 174.343 75.1329 173.764 75.1329C173.184 75.1329 172.628 74.9067 172.213 74.5024C171.798 74.0982 171.557 73.5479 171.541 72.9687V69.3292C171.541 67.941 170.999 67.377 170.131 67.377C169.263 67.377 168.505 67.941 168.505 69.3292V72.9718C168.49 73.551 168.249 74.1013 167.834 74.5056C167.418 74.9098 166.862 75.136 166.283 75.136C165.703 75.136 165.147 74.9098 164.731 74.5056C164.316 74.1013 164.075 73.551 164.06 72.9718V65.6865C164.075 65.1073 164.316 64.557 164.731 64.1527C165.147 63.7485 165.703 63.5223 166.283 63.5223C166.862 63.5223 167.418 63.7485 167.834 64.1527C168.249 64.557 168.49 65.1073 168.505 65.6865V65.4703C168.939 64.2545 170.131 63.2581 172.083 63.2581C174.252 63.2549 175.986 64.4472 175.986 67.3739Z" fill="white"/>
<path d="M187.153 69.9762H182.1C182.479 71.2296 183.547 71.7121 184.94 71.7121C185.556 71.7039 186.169 71.6257 186.767 71.4787C186.902 71.4473 187.041 71.4325 187.179 71.4348C187.607 71.434 188.021 71.5866 188.347 71.865C188.672 72.1434 188.886 72.5292 188.951 72.9523C189.016 73.3754 188.927 73.8077 188.701 74.1709C188.474 74.5341 188.125 74.8041 187.717 74.9317C186.683 75.2474 185.609 75.4059 184.528 75.4018C180.061 75.4018 177.611 72.8198 177.611 69.3072C177.611 65.7946 180.3 63.2581 184.072 63.2581C187.477 63.2581 189.556 65.0081 189.556 68.0006C189.548 69.2931 188.708 69.9762 187.153 69.9762ZM185.368 67.8079C185.366 67.6018 185.322 67.3983 185.239 67.2095C185.157 67.0207 185.037 66.8504 184.888 66.7088C184.738 66.5671 184.561 66.4571 184.368 66.3851C184.175 66.3131 183.969 66.2807 183.764 66.2897C182.918 66.2897 182.299 66.8318 182.056 67.8079H185.368Z" fill="white"/>
<path d="M195.565 60.5863V72.9635C195.549 73.5427 195.308 74.093 194.893 74.4972C194.478 74.9014 193.922 75.1276 193.342 75.1276C192.763 75.1276 192.206 74.9014 191.791 74.4972C191.376 74.093 191.135 73.5427 191.12 72.9635V60.5863C191.135 60.0071 191.376 59.4568 191.791 59.0526C192.206 58.6483 192.763 58.4221 193.342 58.4221C193.922 58.4221 194.478 58.6483 194.893 59.0526C195.308 59.4568 195.549 60.0071 195.565 60.5863Z" fill="white"/>
<path d="M239.997 23.66C237.177 31.456 234.357 39.2521 231.537 47.0482C230.484 49.931 229.465 52.8373 228.215 55.6355C226.257 60.0129 223.294 63.5303 218.772 65.5059C215.087 67.1134 211.196 67.5866 207.232 67.2904C204.336 67.0727 202.286 64.5517 202.311 61.564C202.311 60.179 202.824 58.8431 203.751 57.8144C204.679 56.7857 205.954 56.1373 207.332 55.9943C208.452 55.8783 209.588 55.8454 210.69 55.6355C212.379 55.3127 213.696 54.3711 214.696 52.972C215.036 52.502 215.056 52.1056 214.799 51.562C211.077 43.7001 207.372 35.8304 203.685 27.9529C203.31 27.1554 202.947 26.3501 202.632 25.5276C201.253 21.9241 202.821 18.2344 206.292 16.8792C209.848 15.4895 213.696 17.1095 215.1 20.702C217.215 26.1104 219.246 31.5501 221.314 36.9757C221.495 37.4457 221.697 37.9157 221.992 38.6333C222.553 36.6999 223.046 35.0204 223.527 33.3362C224.586 29.6246 225.619 25.9051 226.708 22.2029C226.966 21.2976 227.331 20.4261 227.795 19.6069C229.18 17.2208 231.726 16.0285 234.291 16.4734C237.169 16.9638 239.195 18.8658 239.792 21.628C239.848 21.8276 239.918 22.0232 240 22.2139L239.997 23.66Z" fill="white"/>
<path d="M139.992 0.0217285C140.443 0.132967 140.896 0.236356 141.344 0.358561C142.903 0.780826 144.248 1.76784 145.119 3.1275C145.99 4.48716 146.324 6.12222 146.055 7.7144C145.548 10.9293 142.526 13.3625 139.286 13.1619C135.967 12.9567 133.266 10.3418 133.084 7.17385C132.884 3.65027 135.156 0.750253 138.541 0.211297C138.754 0.162662 138.964 0.0993245 139.168 0.0217285H139.992Z" fill="white"/>
<path d="M99.2583 35.0855V36.3389C99.2583 39.5961 99.2833 42.8549 99.2489 46.1121C99.2354 47.6815 98.6503 49.1921 97.6031 50.361C96.5559 51.5299 95.1185 52.2769 93.5601 52.4621C90.2496 52.882 87.1584 50.8782 86.3531 47.7431C86.2 47.0923 86.1279 46.425 86.1384 45.7565C86.1259 33.0001 86.1259 20.2438 86.1384 7.4875C86.1384 3.37012 88.8489 0.669068 92.9506 0.665935C98.8399 0.665935 104.729 0.651834 110.617 0.665935C113.843 0.676902 117.006 1.1093 120.002 2.37052C125.255 4.58275 128.044 8.74714 128.995 14.1727C130.262 21.3938 127.976 27.2972 122.007 31.6919C121.912 31.7624 121.83 31.8486 121.573 32.0977C122.839 33.9919 124.055 35.9472 125.415 37.799C126.421 39.1699 127.585 40.4296 128.729 41.694C130.897 44.0895 130.977 47.4909 128.885 50.0134C126.72 52.6126 123.333 53.2831 120.613 51.5268C119.658 50.8773 118.799 50.0968 118.062 49.208C114.604 45.205 111.734 40.7884 109.166 36.1807C108.681 35.308 108.143 35.0182 107.166 35.0511C104.911 35.1278 102.65 35.0761 100.393 35.0761L99.2583 35.0855ZM99.3382 11.7521V24.0588C102.675 24.0588 105.934 24.0698 109.191 24.0494C109.861 24.0435 110.529 23.9769 111.187 23.8504C114.31 23.2551 115.957 21.14 115.941 17.795C115.925 14.5315 114.246 12.4682 111.093 11.9355C110.159 11.8024 109.216 11.7437 108.273 11.76C105.322 11.738 102.368 11.7521 99.3382 11.7521Z" fill="white"/>
<path d="M178.514 37.5367C179.013 39.8868 180.127 41.6102 182.261 42.508C184.997 43.6517 187.757 43.2914 190.479 42.3858C191.372 42.085 192.224 41.6603 193.119 41.3627C195.271 40.6435 197.349 41.3784 198.446 43.2005C199.633 45.184 199.375 47.6437 197.709 49.1274C197.001 49.7495 196.202 50.2609 195.34 50.644C191.394 52.4035 187.209 52.6432 182.973 52.3957C180.492 52.25 178.078 51.7532 175.8 50.727C170.077 48.1466 167.008 43.5844 166.086 37.5148C165.35 32.6674 166.039 28.058 168.803 23.8843C171.811 19.3407 176.167 17.0815 181.494 16.5927C185.34 16.2402 189.144 16.5363 192.617 18.3881C197.985 21.2459 200.608 25.8254 200.575 31.8526C200.559 35.4561 198.33 37.5336 194.729 37.5398C189.727 37.5461 184.724 37.5461 179.718 37.5398L178.514 37.5367ZM178.628 30.3297H188.754C188.827 27.6553 186.813 25.7205 183.961 25.6531C180.908 25.5842 178.678 27.5096 178.631 30.3329L178.628 30.3297Z" fill="white"/>
<path d="M150.609 26.194C150.609 19.4977 150.598 12.8016 150.609 6.10536C150.617 2.89826 152.609 0.579463 155.721 0.0812424C159.426 -0.512549 162.662 2.21827 162.669 5.99566C162.687 13.516 162.669 21.0363 162.669 28.5488C162.669 34.576 162.685 40.6017 162.669 46.6289C162.657 49.6825 160.371 52.0717 157.186 52.4477C154.366 52.7814 151.508 50.8544 150.795 48.0875C150.652 47.4349 150.591 46.7671 150.612 46.0994C150.602 39.4648 150.601 32.8296 150.609 26.194Z" fill="white"/>
<path d="M133.622 34.4642C133.622 30.3907 133.602 26.3172 133.63 22.2343C133.635 20.8672 134.13 19.5472 135.024 18.5128C135.918 17.4784 137.152 16.7978 138.504 16.594C141.705 16.135 144.555 17.8255 145.374 20.7098C145.537 21.2949 145.621 21.8994 145.623 22.5069C145.641 30.4774 145.641 38.4478 145.623 46.4183C145.615 49.6505 143.389 52.0852 140.036 52.4158C137.385 52.679 134.553 51.0621 133.802 48.1339C133.668 47.5425 133.609 46.9368 133.625 46.3307C133.614 42.3794 133.622 38.4186 133.622 34.4642Z" fill="white"/>
<path d="M27.1703 44.405C26.2772 40.2328 27.3629 37.209 30.1909 35.7488C28.6816 34.0776 27.2345 32.3474 25.8495 30.5581C25.2353 29.7748 24.6588 29.5649 23.7 29.7482C21.4815 30.1696 19.241 30.4642 17.01 30.8104L15.8992 30.9827C15.9728 31.4637 16.0324 31.846 16.0919 32.2283C16.5901 35.4479 17.115 38.6629 17.5803 41.8872C17.8074 43.4399 17.4609 45.0222 16.6055 46.3378C15.7502 47.6534 14.4446 48.6122 12.9334 49.0347C9.72468 49.9559 6.36407 48.4503 5.08875 45.4766C4.83773 44.8564 4.66404 44.2075 4.57168 43.5448C3.0415 33.7329 1.51764 23.9189 0 14.1028V67.5033C-4.12338e-08 69.5964 0.83139 71.6039 2.31131 73.0841C3.79124 74.5643 5.79852 75.3961 7.89165 75.3965H33.8132L27.1703 44.405Z" fill="white"/>
<path d="M24.045 6.29272C23.1022 6.30468 22.1619 6.39111 21.2328 6.55122C18.3108 6.98364 15.3951 7.44895 12.4011 7.9127C13.0419 12.041 13.6544 16.0206 14.2811 20.0753C17.5791 19.563 20.8003 19.0741 24.0168 18.5555C24.6778 18.4469 25.3274 18.2786 25.958 18.0526C28.952 16.9857 30.2555 14.6434 29.7275 11.3408C29.2168 8.118 27.2411 6.33346 24.045 6.29272Z" fill="white"/>
<path d="M56.0953 48.2144C55.1459 43.7868 51.8652 42.7731 47.5269 43.7022L40.746 45.1561L43.3484 57.2952L50.1276 55.8412C54.4643 54.9137 57.0432 52.642 56.0953 48.2144Z" fill="white"/>
<path d="M66.8382 0.66626H39.4204C40.5749 2.21252 41.4698 3.9366 42.0698 5.77069C44.4277 12.7129 43.074 18.8952 37.8505 24.1547C37.7659 24.2393 37.6939 24.3427 37.4839 24.6247C39.0256 26.3011 40.5265 28.0481 42.1528 29.6696C43.0819 30.594 44.0924 31.44 45.1139 32.272L48.1267 31.6264C60.1577 29.0476 67.7658 37.1257 69.5268 45.3385C71.2878 53.5513 67.6577 64.0375 55.6252 66.6163L45.7923 68.7236L47.2243 75.401H66.8336C68.9268 75.4005 70.9343 74.5688 72.4144 73.0886C73.8946 71.6085 74.7263 69.6011 74.7267 67.5078V8.55791C74.7263 6.46559 73.8952 4.45904 72.416 2.97926C70.9368 1.49947 68.9305 0.667506 66.8382 0.66626Z" fill="white"/>
</svg>
