<svg width="179" height="56" viewBox="0 0 179 56" fill="none" xmlns="http://www.w3.org/2000/svg">
<path d="M74.6052 47.4568C74.6052 49.6223 73.1228 52.0706 69.9508 52.0706H67.3559V53.8404C67.3559 54.9319 66.5984 55.836 65.664 55.836C64.7296 55.836 63.9733 54.9319 63.9733 53.8404V44.9341C63.9733 43.5971 64.618 42.8396 65.7606 42.8396H69.9496C73.1205 42.8431 74.6052 45.2913 74.6052 47.4568ZM71.062 47.4568C71.062 46.2932 70.2882 45.8557 69.1456 45.8557H67.3559V49.0568H69.1432C70.2859 49.0568 71.0597 48.6239 71.0597 47.4568H71.062Z" fill="#C82A7B"/>
<path d="M81.9288 51.9703H78.1762C78.4589 52.9012 79.2513 53.2596 80.287 53.2596C80.7443 53.2534 81.1995 53.1953 81.6438 53.0862C81.7441 53.0629 81.8468 53.0519 81.9498 53.0536C82.2676 53.0532 82.575 53.1668 82.8163 53.3737C83.0576 53.5805 83.2167 53.8671 83.2648 54.1812C83.3129 54.4954 83.2469 54.8163 83.0786 55.086C82.9104 55.3556 82.6511 55.556 82.3477 55.6508C81.5808 55.8852 80.7829 56.0029 79.9809 55.9999C76.6623 55.9999 74.8424 54.0822 74.8424 51.4734C74.8424 48.8646 76.8403 46.9807 79.6423 46.9807C82.1709 46.9807 83.7092 48.2805 83.7092 50.503C83.7092 51.463 83.0843 51.9703 81.9288 51.9703ZM80.6081 50.3599C80.6064 50.2068 80.5739 50.0557 80.5126 49.9155C80.4513 49.7753 80.3624 49.6488 80.2513 49.5436C80.1401 49.4384 80.0089 49.3566 79.8656 49.3032C79.7222 49.2497 79.5695 49.2256 79.4166 49.2323C78.7882 49.2323 78.3298 49.6349 78.1483 50.3599H80.6081Z" fill="#C82A7B"/>
<path d="M91.9535 48.7739C91.9535 49.728 91.2926 50.5658 89.9277 50.5007C88.7362 50.4448 88.1764 51.1779 88.1764 52.857V54.1928C88.165 54.623 87.9861 55.0317 87.6778 55.3319C87.3695 55.6322 86.9562 55.8002 86.5258 55.8002C86.0955 55.8002 85.6822 55.6322 85.3739 55.3319C85.0656 55.0317 84.8867 54.623 84.8752 54.1928V48.782C84.8867 48.3518 85.0656 47.9431 85.3739 47.6429C85.6822 47.3427 86.0955 47.1746 86.5258 47.1746C86.9562 47.1746 87.3695 47.3427 87.6778 47.6429C87.9861 47.9431 88.165 48.3518 88.1764 48.782V49.4802C88.4022 48.4259 89.0142 47.1448 90.3151 47.1448C91.2449 47.139 91.9535 47.7348 91.9535 48.7739Z" fill="#C82A7B"/>
<path d="M99.9406 53.0979C99.9406 55.0505 98.2126 55.9977 95.918 55.9977C95.0008 55.9897 94.0905 55.8373 93.2207 55.5462C92.6447 55.3449 92.2828 54.9423 92.2828 54.3745C92.2828 53.6856 92.7692 53.1864 93.5186 53.1864C94.3238 53.1864 94.908 53.6623 95.975 53.6623C96.3974 53.6623 96.7593 53.6216 96.7593 53.3039C96.7593 52.4696 92.5004 52.9549 92.5004 49.8573C92.5004 47.7954 94.3238 46.9785 96.3729 46.9785C97.2199 46.9842 98.0605 47.1268 98.8619 47.4009C99.4007 47.6069 99.7195 47.9827 99.7195 48.5889C99.7195 49.1952 99.2157 49.7328 98.4954 49.7328C97.8554 49.7328 97.2352 49.2325 96.2845 49.2325C95.7365 49.2325 95.5957 49.3488 95.5957 49.5513C95.6003 50.268 99.9406 49.9213 99.9406 53.0979Z" fill="#C82A7B"/>
<path d="M100.704 51.4897C100.704 48.9775 102.718 46.9807 105.44 46.9807C108.162 46.9807 110.175 48.9775 110.175 51.4897C110.175 54.002 108.162 55.9999 105.44 55.9999C102.718 55.9999 100.704 53.9996 100.704 51.4897ZM106.871 51.4897C106.871 50.5076 106.259 49.8793 105.439 49.8793C104.618 49.8793 104.005 50.5076 104.005 51.4897C104.005 52.4718 104.617 53.0839 105.439 53.0839C106.26 53.0839 106.872 52.4544 106.872 51.4897H106.871Z" fill="#C82A7B"/>
<path d="M120.239 50.0375V54.1928C120.227 54.623 120.048 55.0317 119.74 55.3319C119.432 55.6321 119.018 55.8002 118.588 55.8002C118.158 55.8002 117.744 55.6321 117.436 55.3319C117.128 55.0317 116.949 54.623 116.937 54.1928V51.4897C116.937 50.4588 116.535 50.0399 115.89 50.0399C115.245 50.0399 114.682 50.4588 114.682 51.4897V54.1951C114.671 54.6253 114.492 55.034 114.184 55.3343C113.875 55.6345 113.462 55.8025 113.032 55.8025C112.601 55.8025 112.188 55.6345 111.88 55.3343C111.571 55.034 111.393 54.6253 111.381 54.1951V48.7843C111.393 48.3541 111.571 47.9454 111.88 47.6452C112.188 47.345 112.601 47.177 113.032 47.177C113.462 47.177 113.875 47.345 114.184 47.6452C114.492 47.9454 114.671 48.3541 114.682 48.7843V48.6238C115.005 47.7208 115.89 46.9807 117.34 46.9807C118.95 46.9784 120.239 47.8639 120.239 50.0375Z" fill="#C82A7B"/>
<path d="M130.705 50.0375V54.1928C130.694 54.623 130.515 55.0317 130.207 55.3319C129.899 55.6321 129.485 55.8002 129.055 55.8002C128.625 55.8002 128.211 55.6321 127.903 55.3319C127.595 55.0317 127.416 54.623 127.404 54.1928V51.4897C127.404 50.4588 127.002 50.0399 126.357 50.0399C125.712 50.0399 125.149 50.4588 125.149 51.4897V54.1951C125.138 54.6253 124.959 55.034 124.651 55.3343C124.342 55.6345 123.929 55.8025 123.499 55.8025C123.068 55.8025 122.655 55.6345 122.347 55.3343C122.038 55.034 121.859 54.6253 121.848 54.1951V48.7843C121.859 48.3541 122.038 47.9454 122.347 47.6452C122.655 47.345 123.068 47.177 123.499 47.177C123.929 47.177 124.342 47.345 124.651 47.6452C124.959 47.9454 125.138 48.3541 125.149 48.7843V48.6238C125.472 47.7208 126.357 46.9807 127.807 46.9807C129.417 46.9784 130.705 47.8639 130.705 50.0375Z" fill="#C82A7B"/>
<path d="M138.999 51.9703H135.246C135.528 52.9012 136.321 53.2596 137.356 53.2596C137.813 53.2535 138.268 53.1953 138.712 53.0862C138.813 53.0629 138.915 53.0519 139.018 53.0536C139.336 53.053 139.644 53.1663 139.885 53.3731C140.127 53.5799 140.286 53.8664 140.335 54.1806C140.383 54.4949 140.317 54.816 140.149 55.0857C139.98 55.3555 139.721 55.5559 139.418 55.6508C138.65 55.8852 137.852 56.0029 137.05 55.9999C133.732 55.9999 131.912 54.0822 131.912 51.4734C131.912 48.8646 133.909 46.9807 136.711 46.9807C139.239 46.9807 140.784 48.2805 140.784 50.503C140.778 51.463 140.154 51.9703 138.999 51.9703ZM137.673 50.3599C137.672 50.2068 137.639 50.0557 137.578 49.9155C137.516 49.7753 137.428 49.6488 137.316 49.5436C137.205 49.4384 137.074 49.3566 136.931 49.3032C136.787 49.2497 136.635 49.2256 136.482 49.2323C135.853 49.2323 135.394 49.6349 135.213 50.3599H137.673Z" fill="#C82A7B"/>
<path d="M145.246 44.9968V54.1893C145.235 54.6195 145.056 55.0282 144.747 55.3284C144.439 55.6286 144.026 55.7966 143.595 55.7966C143.165 55.7966 142.752 55.6286 142.443 55.3284C142.135 55.0282 141.956 54.6195 141.945 54.1893V44.9968C141.956 44.5666 142.135 44.1579 142.443 43.8576C142.752 43.5574 143.165 43.3894 143.595 43.3894C144.026 43.3894 144.439 43.5574 144.747 43.8576C145.056 44.1579 145.235 44.5666 145.246 44.9968Z" fill="#C82A7B"/>
<path d="M178.246 17.5717C176.152 23.3618 174.057 29.152 171.963 34.9422C171.181 37.0832 170.424 39.2417 169.496 41.3199C168.041 44.5711 165.841 47.1834 162.483 48.6507C159.746 49.8446 156.855 50.196 153.911 49.9761C151.761 49.8143 150.238 47.9421 150.256 45.723C150.256 44.6944 150.638 43.7022 151.326 42.9382C152.015 42.1742 152.963 41.6926 153.986 41.5864C154.818 41.5003 155.661 41.4759 156.479 41.3199C157.734 41.0802 158.712 40.3809 159.455 39.3418C159.707 38.9927 159.722 38.6983 159.532 38.2945C156.767 32.4555 154.015 26.6107 151.277 20.76C150.999 20.1678 150.729 19.5697 150.495 18.9588C149.471 16.2824 150.636 13.5421 153.213 12.5356C155.855 11.5035 158.712 12.7066 159.755 15.3748C161.326 19.3916 162.834 23.4317 164.37 27.4613C164.505 27.8104 164.655 28.1595 164.874 28.6924C165.29 27.2565 165.657 26.0091 166.014 24.7582C166.801 22.0016 167.568 19.2392 168.376 16.4895C168.568 15.8171 168.839 15.1699 169.184 14.5615C170.212 12.7893 172.103 11.9038 174.008 12.2342C176.146 12.5984 177.65 14.0111 178.094 16.0625C178.136 16.2107 178.188 16.3561 178.248 16.4977L178.246 17.5717Z" fill="#850BB3"/>
<path d="M103.973 0.017334C104.308 0.0999507 104.644 0.176738 104.977 0.2675C106.134 0.581117 107.134 1.31417 107.78 2.324C108.427 3.33382 108.675 4.54818 108.476 5.7307C108.099 8.11843 105.854 9.92553 103.448 9.77659C100.983 9.62415 98.9772 7.68206 98.8423 5.32923C98.6933 2.71226 100.381 0.55841 102.895 0.158127C103.053 0.122005 103.209 0.0749647 103.361 0.017334H103.973Z" fill="#C82A7B"/>
<path d="M73.7197 26.0579V26.9887C73.7197 29.4079 73.7383 31.8282 73.7127 34.2474C73.7027 35.4129 73.2682 36.5348 72.4904 37.403C71.7126 38.2711 70.645 38.826 69.4876 38.9635C67.0289 39.2754 64.7331 37.7871 64.135 35.4587C64.0213 34.9753 63.9677 34.4797 63.9755 33.9832C63.9662 24.5091 63.9662 15.0349 63.9755 5.56079C63.9755 2.5028 65.9886 0.496728 69.0349 0.494401C73.409 0.494401 77.783 0.483928 82.1559 0.494401C84.5518 0.502546 86.9011 0.82369 89.1259 1.7604C93.0275 3.40342 95.0988 6.49632 95.8051 10.5259C96.7464 15.889 95.0487 20.2735 90.6153 23.5374C90.5444 23.5898 90.4839 23.6538 90.293 23.8389C91.2332 25.2457 92.1362 26.6978 93.1462 28.0732C93.8933 29.0914 94.7579 30.027 95.6073 30.966C97.2177 32.7452 97.2771 35.2714 95.7237 37.1448C94.1155 39.0752 91.5998 39.5732 89.5797 38.2688C88.8706 37.7865 88.2329 37.2068 87.6854 36.5467C85.1173 33.5737 82.9855 30.2934 81.0784 26.8712C80.7176 26.2231 80.3185 26.0078 79.5924 26.0323C77.918 26.0893 76.2389 26.0509 74.5621 26.0509L73.7197 26.0579ZM73.779 8.72811V17.8683C76.2575 17.8683 78.6778 17.8765 81.097 17.8614C81.5946 17.857 82.0907 17.8075 82.5794 17.7136C84.8985 17.2714 86.1215 15.7005 86.1099 13.2162C86.0982 10.7924 84.8508 9.25993 82.5096 8.8643C81.816 8.76545 81.1157 8.72186 80.4151 8.73397C78.2229 8.71768 76.0294 8.72811 73.779 8.72811Z" fill="#850BB3"/>
<path d="M132.582 27.879C132.953 29.6244 133.781 30.9044 135.366 31.5711C137.397 32.4206 139.448 32.153 141.469 31.4804C142.132 31.257 142.765 30.9416 143.43 30.7205C145.028 30.1864 146.571 30.7322 147.386 32.0855C148.268 33.5586 148.076 35.3855 146.839 36.4874C146.313 36.9494 145.719 37.3292 145.08 37.6138C142.148 38.9205 139.04 39.0986 135.894 38.9147C134.052 38.8065 132.259 38.4376 130.567 37.6755C126.316 35.759 124.037 32.3706 123.353 27.8627C122.806 24.2625 123.318 20.8392 125.37 17.7393C127.604 14.3648 130.839 12.6869 134.795 12.3238C137.652 12.062 140.477 12.2819 143.057 13.6573C147.044 15.7797 148.992 19.181 148.967 23.6574C148.956 26.3337 147.3 27.8767 144.626 27.8813C140.911 27.886 137.194 27.886 133.477 27.8813L132.582 27.879ZM132.667 22.5264H140.188C140.242 20.5401 138.746 19.103 136.628 19.053C134.36 19.0018 132.704 20.4318 132.67 22.5287L132.667 22.5264Z" fill="#850BB3"/>
<path d="M111.857 19.4543C111.857 14.481 111.849 9.50775 111.857 4.53446C111.863 2.15254 113.343 0.430368 115.654 0.0603389C118.406 -0.380671 120.809 1.64751 120.815 4.45299C120.828 10.0383 120.815 15.6237 120.815 21.2032C120.815 25.6797 120.826 30.1549 120.815 34.6314C120.805 36.8992 119.108 38.6737 116.742 38.953C114.648 39.2008 112.525 37.7696 111.996 35.7147C111.89 35.23 111.844 34.734 111.86 34.2381C111.853 29.3105 111.852 24.3826 111.857 19.4543Z" fill="#850BB3"/>
<path d="M99.2413 25.597C99.2413 22.5716 99.2262 19.5462 99.2471 16.5138C99.2513 15.4985 99.6185 14.5181 100.282 13.7499C100.946 12.9816 101.863 12.4761 102.867 12.3248C105.244 11.9839 107.361 13.2394 107.97 15.3816C108.091 15.8162 108.153 16.2651 108.155 16.7163C108.168 22.636 108.168 28.5557 108.155 34.4754C108.149 36.8759 106.495 38.6842 104.005 38.9297C102.036 39.1252 99.9325 37.9243 99.3751 35.7495C99.2759 35.3103 99.2317 34.8604 99.2436 34.4102C99.2355 31.4756 99.2413 28.534 99.2413 25.597Z" fill="#C82A7B"/>
<path d="M20.1794 32.9801C19.5161 29.8814 20.3225 27.6356 22.4228 26.5511C21.3019 25.3099 20.2271 24.0249 19.1985 22.696C18.7423 22.1142 18.3141 21.9583 17.602 22.0945C15.9543 22.4075 14.2903 22.6263 12.6333 22.8834L11.8084 23.0114C11.8631 23.3686 11.9073 23.6525 11.9515 23.9365C12.3215 26.3277 12.7113 28.7154 13.0569 31.1101C13.2256 32.2633 12.9682 33.4385 12.333 34.4156C11.6977 35.3927 10.7281 36.1048 9.60562 36.4186C7.22254 37.1028 4.7266 35.9845 3.77942 33.776C3.59299 33.3153 3.46399 32.8335 3.39539 32.3413C2.25893 25.0539 1.12716 17.765 0 10.4746V50.1353C-3.06244e-08 51.6898 0.617475 53.1808 1.71662 54.2801C2.81576 55.3795 4.30657 55.9973 5.86114 55.9976H25.1131L20.1794 32.9801Z" fill="#C82A7B"/>
<path d="M17.8581 4.67407C17.1579 4.68295 16.4595 4.74714 15.7695 4.86606C13.5993 5.18722 11.4338 5.5328 9.21014 5.87723C9.68606 8.94336 10.141 11.899 10.6065 14.9104C13.0559 14.5299 15.4483 14.1668 17.8372 13.7817C18.3281 13.701 18.8106 13.576 19.2789 13.4082C21.5025 12.6158 22.4707 10.8762 22.0785 8.42326C21.6992 6.02971 20.2319 4.70433 17.8581 4.67407Z" fill="#C82A7B"/>
<path d="M41.662 35.8089C40.9568 32.5205 38.5202 31.7676 35.2982 32.4577L30.262 33.5375L32.1948 42.5532L37.2297 41.4733C40.4506 40.7845 42.366 39.0973 41.662 35.8089Z" fill="#C82A7B"/>
<path d="M49.6411 0.494385H29.2778C30.1353 1.64279 30.7999 2.92327 31.2455 4.28545C32.9967 9.44143 31.9914 14.033 28.1119 17.9393C28.049 18.0021 27.9955 18.0789 27.8396 18.2884C28.9846 19.5334 30.0993 20.8309 31.3071 22.0352C31.9972 22.7218 32.7477 23.3501 33.5064 23.968L35.744 23.4886C44.6794 21.5733 50.33 27.5729 51.6379 33.6725C52.9458 39.7722 50.2497 47.5603 41.3131 49.4756L34.0102 51.0407L35.0738 56H49.6376C51.1923 55.9997 52.6832 55.3819 53.7825 54.2826C54.8819 53.1833 55.4996 51.6924 55.4999 50.1377V6.35553C55.4996 4.80156 54.8823 3.31129 53.7837 2.21225C52.6851 1.11321 51.195 0.49531 49.6411 0.494385Z" fill="#C82A7B"/>
</svg>
