<svg width="24" height="24" viewBox="0 0 24 24" fill="none" xmlns="http://www.w3.org/2000/svg">
<path d="M12 15.7352C9.88304 15.7352 8.16667 14.0198 8.16667 11.9019C8.16667 9.7849 9.88304 8.06852 12 8.06852C14.117 8.06852 15.8333 9.7849 15.8333 11.9019C15.8333 14.0198 14.117 15.7352 12 15.7352Z" fill="white"/>
<path fill-rule="evenodd" clip-rule="evenodd" d="M12 0.401855C8.87679 0.401855 8.48579 0.415272 7.25913 0.470855C3.08271 0.662522 0.761625 2.97977 0.569958 7.16002C0.513417 8.38765 0.5 8.77865 0.5 11.9019C0.5 15.0251 0.513417 15.417 0.569 16.6437C0.760667 20.8201 3.07792 23.1412 7.25817 23.3329C8.48579 23.3884 8.87679 23.4019 12 23.4019C15.1232 23.4019 15.5152 23.3884 16.7418 23.3329C20.9144 23.1412 23.2412 20.8239 23.43 16.6437C23.4866 15.417 23.5 15.0251 23.5 11.9019C23.5 8.77865 23.4866 8.38765 23.431 7.16098C23.2432 2.9884 20.923 0.66348 16.7428 0.471814C15.5152 0.415272 15.1232 0.401855 12 0.401855ZM12 5.99661C8.73879 5.99661 6.09475 8.64065 6.09475 11.9019C6.09475 15.1631 8.73879 17.8081 12 17.8081C15.2612 17.8081 17.9053 15.164 17.9053 11.9019C17.9053 8.64065 15.2612 5.99661 12 5.99661ZM8.16667 11.9019C8.16667 14.0198 9.88304 15.7352 12 15.7352C14.117 15.7352 15.8333 14.0198 15.8333 11.9019C15.8333 9.7849 14.117 8.06852 12 8.06852C9.88304 8.06852 8.16667 9.7849 8.16667 11.9019ZM16.7581 5.76373C16.7581 5.00186 17.3763 4.38373 18.1391 4.38373C18.901 4.38373 19.5181 5.00186 19.5181 5.76373C19.5181 6.52561 18.901 7.14373 18.1391 7.14373C17.3763 7.14373 16.7581 6.52561 16.7581 5.76373Z" fill="white"/>
</svg>
