<svg width="24" height="24" viewBox="0 0 24 24" fill="none" xmlns="http://www.w3.org/2000/svg">
<g clip-path="url(#clip0_557_1069)">
<path fill-rule="evenodd" clip-rule="evenodd" d="M18.7832 0.401855H5.2168C2.62256 0.401855 0.5 2.52441 0.5 5.11865V18.6851C0.5 21.2793 2.62256 23.4019 5.2168 23.4019H18.7832C21.3774 23.4019 23.5 21.2793 23.5 18.6851V5.11865C23.5 2.52441 21.3774 0.401855 18.7832 0.401855ZM15.4545 11.2531C15.5223 11.2819 15.5892 11.3124 15.6548 11.3439C16.5851 11.79 17.2653 12.4656 17.6219 13.2971C18.1192 14.457 18.1646 16.3459 16.6561 17.8531C15.503 19.0053 14.1032 19.5251 12.1177 19.539H12.1087C9.87516 19.5237 8.15734 18.7717 7.00375 17.305C5.97684 16 5.44721 14.1838 5.42969 11.9072V11.8964C5.44721 9.61979 5.97684 7.80359 7.00375 6.49861C8.15734 5.03191 9.87516 4.28037 12.1087 4.26465H12.1177C14.3557 4.28037 16.0923 5.02877 17.2801 6.49008C17.8663 7.21107 18.2967 8.08031 18.5702 9.08881L17.2859 9.43156C17.06 8.61219 16.7177 7.90916 16.2635 7.35033C15.3368 6.21066 13.9406 5.62578 12.1132 5.6123C10.2983 5.62578 8.92596 6.20797 8.03381 7.34225C7.19826 8.4042 6.76656 9.93828 6.75039 11.9018C6.76656 13.8654 7.19826 15.3994 8.03381 16.4614C8.92596 17.5957 10.2983 18.1779 12.1132 18.1913C13.7488 18.1792 14.8314 17.7902 15.7316 16.8904C16.7594 15.8635 16.7401 14.6039 16.4117 13.8375C16.2181 13.3865 15.8682 13.0114 15.3961 12.7266C15.2811 13.5837 15.0205 14.2643 14.6086 14.7894C14.0659 15.4807 13.2888 15.859 12.2973 15.9129C11.5471 15.9542 10.8248 15.7732 10.2642 15.403C9.60113 14.965 9.21301 14.2953 9.17168 13.5159C9.08992 11.9804 10.3082 10.8754 12.203 10.7662C12.8759 10.7276 13.5048 10.7581 14.087 10.8569C14.0098 10.3844 13.8534 10.0102 13.6203 9.73883C13.3 9.36688 12.8045 9.17596 12.1482 9.17191H12.1302C11.6033 9.17191 10.8877 9.31926 10.4317 10.0111L9.33564 9.25906C9.97713 8.28561 11.0067 7.81662 12.1567 7.82426C14.1499 7.83684 15.3368 9.08072 15.4545 11.2531ZM10.4906 13.4431C10.5333 14.2413 11.3962 14.6142 12.2264 14.5675C13.0399 14.5226 13.9626 14.2036 14.1198 12.2387C13.698 12.1462 13.234 12.0981 12.738 12.0981C12.5875 12.0981 12.4339 12.1026 12.2776 12.1116C10.912 12.1902 10.4591 12.851 10.4906 13.4431Z" fill="white"/>
</g>
<defs>
<clipPath id="clip0_557_1069">
<rect width="23" height="23" fill="white" transform="translate(0.5 0.401855)"/>
</clipPath>
</defs>
</svg>
